<?xml version="1.0" encoding="utf-8"?>
<!-- Generator: Adobe Illustrator 21.1.0, SVG Export Plug-In . SVG Version: 6.00 Build 0)  -->
<svg version="1.1" id="Layer_1" xmlns="http://www.w3.org/2000/svg" xmlns:xlink="http://www.w3.org/1999/xlink" x="0px" y="0px"
	 viewBox="0 0 1190.6 841.9" style="enable-background:new 0 0 1190.6 841.9;" xml:space="preserve">
<style type="text/css">
	.st0{fill:#FFFFFF;stroke:#000000;stroke-miterlimit:10;}
</style>
<path class="st0" d="M509.1,194.8c-15.1,0-28.7,6.4-38.3,16.6v-71.7c0-29.7-24.3-54-54-54h-55.3c0.1,1.4,0.2,2.8,0.2,4.3
	c0,29-23.5,52.4-52.4,52.4s-52.4-23.5-52.4-52.4c0-1.4,0.1-2.8,0.2-4.3h-55.3c-29.7,0-54,24.3-54,54v71.7
	c-9.6-10.2-23.2-16.6-38.3-16.6c-29,0-52.4,23.5-52.4,52.4s23.5,52.4,52.4,52.4c15.1,0,28.7-6.4,38.3-16.6v71.7
	c0,29.7,24.3,54,54,54h71.7c-10.2,9.6-16.6,23.2-16.6,38.3c0,29,23.5,52.4,52.4,52.4c29,0,52.4-23.5,52.4-52.4
	c0-15.1-6.4-28.7-16.6-38.3h71.7c29.7,0,54-24.3,54-54v-71.7c9.6,10.2,23.2,16.6,38.3,16.6c29,0,52.4-23.5,52.4-52.4
	S538.1,194.8,509.1,194.8z M109.4,252.9c-3.1,0-5.7-2.5-5.7-5.7c0-3.1,2.5-5.7,5.7-5.7s5.7,2.5,5.7,5.7
	C115.1,250.4,112.5,252.9,109.4,252.9z M309.2,170.7c3.1,0,5.7,2.5,5.7,5.7c0,3.1-2.5,5.7-5.7,5.7s-5.7-2.5-5.7-5.7
	C303.6,173.2,306.1,170.7,309.2,170.7z M252.6,220.3c-3.1,0-5.7-2.5-5.7-5.7c0-3.1,2.5-5.7,5.7-5.7c3.1,0,5.7,2.5,5.7,5.7
	C258.2,217.8,255.7,220.3,252.6,220.3z M263.9,247.2c0-6.3,5.1-11.3,11.3-11.3c6.3,0,11.3,5.1,11.3,11.3c0,6.3-5.1,11.3-11.3,11.3
	C269,258.6,263.9,253.5,263.9,247.2z M280.9,451.3c-3.1,0-5.7-2.5-5.7-5.7c0-3.1,2.5-5.7,5.7-5.7c3.1,0,5.7,2.5,5.7,5.7
	C286.6,448.8,284,451.3,280.9,451.3z M283,285.5c-3.1,0-5.7-2.5-5.7-5.7s2.5-5.7,5.7-5.7s5.7,2.5,5.7,5.7S286.2,285.5,283,285.5z
	 M306,464.7c-6.8-1.4-12.1-6.7-13.5-13.8c-1.7-8.7,2.8-16.6,9.7-19.8c0.3-0.2,1.7,2,1.3,2.6c-0.6,1.2-2.1,2-3.9,4
	c-6.7,7.5-4.7,18.4,4.5,22.8c3.2,1.5,18.4,2.8,18.6-13.2c0.1-7.2-5.4-12.1-8.4-13.5c-0.2-0.1-0.7-3.2,1.7-2.9
	c6.6,0.9,10.1,9.2,10.1,16.5C326.3,459.6,316.7,466.9,306,464.7z M329.8,279.8c0-3.1,2.5-5.7,5.7-5.7c3.1,0,5.7,2.5,5.7,5.7
	s-2.5,5.7-5.7,5.7C332.3,285.5,329.8,282.9,329.8,279.8z M337.6,451.3c-3.1,0-5.7-2.5-5.7-5.7c0-3.1,2.5-5.7,5.7-5.7
	s5.7,2.5,5.7,5.7C343.3,448.8,340.7,451.3,337.6,451.3z M343.3,258.6c-6.3,0-11.3-5.1-11.3-11.3c0-6.3,5.1-11.3,11.3-11.3
	c6.3,0,11.3,5.1,11.3,11.3C354.6,253.5,349.5,258.6,343.3,258.6z M365.9,220.3c-3.1,0-5.7-2.5-5.7-5.7c0-3.1,2.5-5.7,5.7-5.7
	s5.7,2.5,5.7,5.7C371.6,217.8,369.1,220.3,365.9,220.3z M509.1,252.9c-3.1,0-5.7-2.5-5.7-5.7c0-3.1,2.5-5.7,5.7-5.7
	c3.1,0,5.7,2.5,5.7,5.7C514.8,250.4,512.2,252.9,509.1,252.9z"/>
<path class="st0" d="M917.4,365.8c-15.1,0-28.7,6.4-38.3,16.6v-71.7c0-29.7-24.3-54-54-54h-55.2c0.1-0.9,0.1-1.9,0.1-2.8
	c0-29-23.5-52.4-52.4-52.4c-29,0-52.4,23.5-52.4,52.4c0,1,0,1.9,0.1,2.8H610c-29.7,0-54,24.3-54,54v71.7
	c-9.6-10.2-23.2-16.6-38.3-16.6c-29,0-52.4,23.5-52.4,52.4s23.5,52.4,52.4,52.4c15.1,0,28.7-6.4,38.3-16.6v71.7
	c0,29.7,24.3,54,54,54h71.7c-10.2,9.6-16.6,23.2-16.6,38.3c0,29,23.5,52.4,52.4,52.4c29,0,52.4-23.5,52.4-52.4
	c0-15.1-6.4-28.7-16.6-38.3h71.7c29.7,0,54-24.3,54-54v-71.7c9.6,10.2,23.2,16.6,38.3,16.6c29,0,52.4-23.5,52.4-52.4
	S946.3,365.8,917.4,365.8z M517.7,423.9c-3.1,0-5.7-2.5-5.7-5.7c0-3.1,2.5-5.7,5.7-5.7s5.7,2.5,5.7,5.7
	C523.4,421.4,520.8,423.9,517.7,423.9z M717.5,236.2c3.1,0,5.7,2.5,5.7,5.7s-2.5,5.7-5.7,5.7c-3.1,0-5.7-2.5-5.7-5.7
	S714.4,236.2,717.5,236.2z M694.4,460.5c0,2-1.7,3.5-3.6,3.5c-2,0-3.5-1.7-3.5-3.6c0-2,1.7-3.5,3.6-3.5
	C692.9,456.9,694.5,458.5,694.4,460.5z M694.4,487c0,2-1.6,3.5-3.5,3.5s-3.5-1.6-3.5-3.5s1.6-3.5,3.5-3.5S694.4,485,694.4,487z
	 M675,404.1c7.8,0,14.2,6.3,14.2,14.2c0,7.8-6.3,14.2-14.2,14.2c-7.8,0-14.2-6.3-14.2-14.2C660.8,410.4,667.2,404.1,675,404.1z
	 M656.5,459.6c0.5-1.9,2.4-3.1,4.3-2.6c1.9,0.5,3.1,2.4,2.6,4.3s-2.4,3.1-4.3,2.6C657.2,463.4,656.1,461.5,656.5,459.6z
	 M659.3,490.5c-2,0-3.5-1.7-3.5-3.6c0-2,1.7-3.5,3.6-3.5c2,0,3.5,1.7,3.5,3.6C662.9,489,661.2,490.5,659.3,490.5z M666,477.2
	c-2,0-3.5-1.6-3.5-3.5s1.6-3.5,3.5-3.5s3.5,1.6,3.5,3.5S668,477.2,666,477.2z M675.1,487c-2,0-3.5-1.6-3.5-3.5s1.6-3.5,3.5-3.5
	s3.5,1.6,3.5,3.5S677.1,487,675.1,487z M675.1,468.2c-2,0-3.5-1.6-3.5-3.5s1.6-3.5,3.5-3.5s3.5,1.6,3.5,3.5S677.1,468.2,675.1,468.2
	z M679.3,474c0-2,1.6-3.5,3.5-3.5s3.5,1.6,3.5,3.5c0,2-1.6,3.5-3.5,3.5S679.3,476,679.3,474z M689.2,622.3c-3.1,0-5.7-2.5-5.7-5.7
	c0-3.1,2.5-5.7,5.7-5.7c3.1,0,5.7,2.5,5.7,5.7C694.9,619.8,692.3,622.3,689.2,622.3z M714.3,636.6c-6.8-1.4-12.1-6.7-13.5-13.8
	c-1.7-8.7,2.8-16.6,9.7-19.8c0.3-0.2,1.7,2,1.3,2.6c-0.6,1.2-2.1,2-3.9,4c-6.7,7.5-4.7,18.4,4.5,22.8c3.2,1.5,18.4,2.8,18.6-13.2
	c0.1-7.2-5.4-12.1-8.4-13.5c-0.2-0.1-0.7-3.2,1.7-2.9c6.6,0.9,10.1,9.2,10.1,16.5C734.6,631.5,725,638.8,714.3,636.6z M745.9,622.3
	c-3.1,0-5.7-2.5-5.7-5.7c0-3.1,2.5-5.7,5.7-5.7s5.7,2.5,5.7,5.7C751.6,619.8,749,622.3,745.9,622.3z M760.1,432.4
	c-7.8,0-14.2-6.3-14.2-14.2c0-7.8,6.3-14.2,14.2-14.2c7.8,0,14.2,6.3,14.2,14.2C774.2,426.1,767.9,432.4,760.1,432.4z M917.4,423.9
	c-3.1,0-5.7-2.5-5.7-5.7c0-3.1,2.5-5.7,5.7-5.7c3.1,0,5.7,2.5,5.7,5.7C923.1,421.4,920.5,423.9,917.4,423.9z"/>
</svg>
